HIERARCHY
ROOT Hips
{
	OFFSET 0.000000 0.000000 0.000000
	CHANNELS 6 Xposition Yposition Zposition Xrotation Yrotation Zrotation
	JOINT LeftUpLeg_virtual
	{
		OFFSET 0.000000 0.000000 0.000000
		CHANNELS 3 Xrotation Yrotation Zrotation
		JOINT LeftUpLeg
		{
			OFFSET 11.394100 -6.187798 -0.413800
			CHANNELS 3 Xrotation Yrotation Zrotation
			JOINT LeftLeg
			{
				OFFSET 0.430247 -32.302673 3.732800
				CHANNELS 3 Xrotation Yrotation Zrotation
				JOINT LeftFoot
				{
					OFFSET -0.430247 -48.264931 -6.423300
					CHANNELS 3 Xrotation Yrotation Zrotation
					JOINT LeftToeBase
					{
						OFFSET 4.230900 -16.068199 23.438400
						CHANNELS 3 Xrotation Yrotation Zrotation
						JOINT LeftToe_End
						{
							OFFSET 4.510700 0.695400 19.974600
							CHANNELS 3 Xrotation Yrotation Zrotation
							End Site
							{
								OFFSET 0 0 0
							}
						}
					}
				}
			}
		}
	}
	JOINT RightUpLeg_virtual
	{
		OFFSET 0.000000 0.000000 0.000000
		CHANNELS 3 Xrotation Yrotation Zrotation
		JOINT RightUpLeg
		{
			OFFSET -11.333700 -6.187798 -0.413800
			CHANNELS 3 Xrotation Yrotation Zrotation
			JOINT RightLeg
			{
				OFFSET -0.430392 -32.302628 3.733000
				CHANNELS 3 Xrotation Yrotation Zrotation
				JOINT RightFoot
				{
					OFFSET 0.430392 -48.264973 -6.423500
					CHANNELS 3 Xrotation Yrotation Zrotation
					JOINT RightToeBase
					{
						OFFSET -4.230900 -16.068199 23.438400
						CHANNELS 3 Xrotation Yrotation Zrotation
						JOINT RightToe_End
						{
							OFFSET -4.510700 0.695400 19.974600
							CHANNELS 3 Xrotation Yrotation Zrotation
							End Site
							{
								OFFSET 0 0 0
							}
						}
					}
				}
			}
		}
	}
	JOINT Spine_virtual
	{
		OFFSET 0.000000 0.000000 0.000000
		CHANNELS 3 Xrotation Yrotation Zrotation
		JOINT Spine
		{
			OFFSET -0.002400 12.777504 0.315300
			CHANNELS 3 Xrotation Yrotation Zrotation
			JOINT Spine1
			{
				OFFSET -0.002067 5.816869 0.032633
				CHANNELS 3 Xrotation Yrotation Zrotation
				JOINT Spine1_split
				{
					OFFSET -0.002067 5.816869 0.032633
					CHANNELS 3 Xrotation Yrotation Zrotation
					JOINT Spine2
					{
						OFFSET -0.002067 5.816869 0.032633
						CHANNELS 3 Xrotation Yrotation Zrotation
						JOINT Neck_virtual
						{
							OFFSET 0.000000 0.000000 0.000000
							CHANNELS 3 Xrotation Yrotation Zrotation
							JOINT Neck
							{
								OFFSET -0.003700 21.199493 -0.826900
								CHANNELS 3 Xrotation Yrotation Zrotation
								JOINT Head
								{
									OFFSET 0.000000 20.442200 4.834800
									CHANNELS 3 Xrotation Yrotation Zrotation
									JOINT HeadTop_End
									{
										OFFSET 0.000000 34.668396 4.968400
										CHANNELS 3 Xrotation Yrotation Zrotation
										End Site
										{
											OFFSET 0 0 0
										}
									}
								}
							}
						}
						JOINT LeftShoulder_virtual
						{
							OFFSET 0.000000 0.000000 0.000000
							CHANNELS 3 Xrotation Yrotation Zrotation
							JOINT LeftShoulder
							{
								OFFSET 3.288150 8.794197 -1.372250
								CHANNELS 3 Xrotation Yrotation Zrotation
								JOINT LeftShoulder_split
								{
									OFFSET 3.288150 8.794197 -1.372250
									CHANNELS 3 Xrotation Yrotation Zrotation
									JOINT LeftArm
									{
										OFFSET 11.953299 -2.279007 -0.146200
										CHANNELS 3 Xrotation Yrotation Zrotation
										JOINT LeftForeArm
										{
											OFFSET 18.448900 0.000000 0.000000
											CHANNELS 3 Xrotation Yrotation Zrotation
											JOINT LeftHand
											{
												OFFSET 29.527798 0.000000 0.000000
												CHANNELS 3 Xrotation Yrotation Zrotation
												End Site
												{
													OFFSET 0 0 0
												}
											}
										}
									}
								}
							}
						}
						JOINT RightShoulder_virtual
						{
							OFFSET 0.000000 0.000000 0.000000
							CHANNELS 3 Xrotation Yrotation Zrotation
							JOINT RightShoulder
							{
								OFFSET -3.249400 8.794197 -1.372250
								CHANNELS 3 Xrotation Yrotation Zrotation
								JOINT RightShoulder_split
								{
									OFFSET -3.249400 8.794197 -1.372250
									CHANNELS 3 Xrotation Yrotation Zrotation
									JOINT RightArm
									{
										OFFSET -11.953299 -2.279007 -0.146200
										CHANNELS 3 Xrotation Yrotation Zrotation
										JOINT RightForeArm
										{
											OFFSET -18.448900 0.000000 0.000000
											CHANNELS 3 Xrotation Yrotation Zrotation
											JOINT RightHand
											{
												OFFSET -29.527802 0.000000 0.000000
												CHANNELS 3 Xrotation Yrotation Zrotation
												End Site
												{
													OFFSET 0 0 0
												}
											}
										}
									}
								}
							}
						}
					}
				}
			}
		}
	}
}
MOTION
Frames: 8
Frame Time: 0.03333333
0.255754 108.745804 -6.039715 0.000000 0.000000 0.000000 -85.659629 -4.445788 1.588371 5.037977 17.680136 8.379336 -4.982202 5.885551 7.221096 32.246081 26.226526 -24.861965 -9.294937 -0.030191 2.465048 0.000000 0.000000 0.000000 -87.537904 -0.894640 3.915731 1.682480 -21.823704 -14.557011 -0.488589 -1.890237 -7.266713 33.381184 -30.340797 29.949796 -7.350235 1.682401 -3.895812 0.000000 0.000000 0.000000 -85.914791 -5.564970 -0.435419 4.816487 -1.980761 0.833053 4.798756 -0.935490 -1.451590 0.462657 0.786796 -0.412429 0.000000 0.000000 0.000000 5.721857 -1.435162 -1.314038 -8.579255 -1.322470 2.493101 -9.609667 -3.652735 4.638492 0.000000 0.000000 0.000000 6.618173 -1.551756 -0.870957 -0.311930 3.720734 -7.595096 -4.212795 1.449742 -4.392565 39.907880 -32.087033 -34.547295 -24.467990 -88.326845 -23.938433 0.000000 0.000000 0.000000 5.815984 -1.555833 -1.395719 0.470730 -3.184624 19.590728 1.041572 2.300438 0.228553 -41.289422 50.029394 58.716582 179.902060 76.740276 178.533263 0.000000 0.000000 0.000000 
0.222464 108.752426 -6.457413 0.000000 0.000000 0.000000 -86.543496 -4.384248 1.713679 6.324797 17.843109 8.397432 -5.087970 6.358175 7.284558 31.685579 26.633281 -24.996645 -9.231062 -0.002192 2.603185 0.000000 0.000000 0.000000 -88.649906 -0.692625 4.260128 2.070209 -22.826825 -14.700626 -0.359119 -1.706275 -7.211553 33.495832 -29.849064 29.974647 -7.417912 1.836306 -4.079366 0.000000 0.000000 0.000000 -86.991857 -5.306806 -0.188638 4.823295 -2.062842 0.866401 4.513952 -1.007307 -1.587752 0.626768 0.792224 -0.449494 0.000000 0.000000 0.000000 5.615849 -1.491847 -1.467127 -9.253695 -1.215339 2.636081 -11.521026 -3.155999 5.435109 0.000000 0.000000 0.000000 6.479816 -1.604726 -1.031989 -0.255164 3.238423 -6.876838 -4.355630 1.109492 -4.254882 39.077534 -32.017823 -35.804528 -25.301724 -88.477485 -24.688996 0.000000 0.000000 0.000000 5.598626 -1.592783 -1.514758 0.461984 -2.946459 18.287034 0.768780 2.592149 -0.040304 -45.139761 48.257694 61.392425 -178.306473 77.911708 176.703660 0.000000 0.000000 0.000000 
0.219452 108.710991 -6.639362 0.000000 0.000000 0.000000 -87.119684 -4.337052 1.704435 7.114845 17.854955 8.679979 -4.954133 6.724233 7.314563 31.316072 27.139451 -25.107359 -9.247823 0.000445 2.791906 0.000000 0.000000 0.000000 -89.361680 -0.634862 4.328448 2.174278 -23.609773 -14.751996 -0.424779 -1.619071 -7.100863 34.078194 -29.336240 30.019750 -7.948600 1.962199 -4.208614 0.000000 0.000000 0.000000 -87.712558 -5.107700 -0.099570 4.784589 -2.034790 0.989155 4.405613 -1.015482 -1.638314 0.780792 0.757872 -0.429727 0.000000 0.000000 0.000000 5.557333 -1.476358 -1.558792 -9.407006 -1.046660 2.429442 -11.735335 -2.577534 5.875674 0.000000 0.000000 0.000000 6.451263 -1.604859 -1.150903 -0.212781 2.718869 -6.440351 -4.365366 0.849435 -3.949609 38.557132 -32.093775 -36.460301 -25.647598 -88.831815 -25.034262 0.000000 0.000000 0.000000 5.534518 -1.536205 -1.546315 0.474519 -2.665801 17.245854 0.353340 2.708735 -0.245372 -46.709270 47.329553 61.971611 -176.544339 78.990530 174.953451 0.000000 0.000000 0.000000 
0.231925 108.656952 -6.614513 0.000000 0.000000 0.000000 -87.337445 -4.284262 1.592095 7.339847 17.683621 9.134475 -4.631603 6.912558 7.323261 31.219832 27.614105 -25.233217 -9.254867 -0.017195 2.969308 0.000000 0.000000 0.000000 -89.630605 -0.735773 4.109513 2.092030 -23.982411 -14.704928 -0.593917 -1.624722 -6.984871 35.054481 -28.886806 30.167078 -8.908372 2.025621 -4.258116 0.000000 0.000000 0.000000 -88.047832 -5.011086 -0.181153 4.719837 -1.896261 1.175657 4.416207 -0.981752 -1.605547 1.008387 0.705049 -0.363889 0.000000 0.000000 0.000000 5.503437 -1.396855 -1.587350 -8.978547 -0.869556 1.928603 -10.136165 -1.967765 5.945637 0.000000 0.000000 0.000000 6.503929 -1.572333 -1.211131 -0.180704 2.268440 -6.283449 -4.148449 0.657704 -3.450906 38.470959 -32.376350 -36.491071 -25.944530 -89.291691 -25.391631 0.000000 0.000000 0.000000 5.615336 -1.421874 -1.499193 0.519391 -2.442707 16.604782 -0.086382 2.698496 -0.355152 -45.347368 47.584425 60.238642 -175.473461 79.647212 173.985682 0.000000 0.000000 0.000000 
0.233564 108.582809 -6.401421 0.000000 0.000000 0.000000 -87.260981 -4.300945 1.364807 7.039074 17.301183 9.624716 -4.239375 6.912027 7.361099 31.388623 28.031564 -25.347423 -9.139663 -0.033818 3.036596 0.000000 0.000000 0.000000 -89.405885 -0.898977 3.719832 1.932593 -23.838926 -14.514548 -0.850498 -1.699813 -6.929460 36.105227 -28.682935 30.281432 -9.851360 2.003593 -4.209028 0.000000 0.000000 0.000000 -88.002664 -5.034751 -0.423967 4.637100 -1.684010 1.365460 4.493736 -0.940651 -1.516820 1.218295 0.559548 -0.233642 0.000000 0.000000 0.000000 5.428275 -1.292090 -1.551776 -7.947590 -0.724902 1.265738 -6.704883 -1.438204 5.616256 0.000000 0.000000 0.000000 6.628309 -1.540989 -1.212554 -0.149177 1.984417 -6.327109 -3.855116 0.613947 -2.900417 38.752379 -32.796014 -36.068067 -31.899555 -89.694167 -31.434559 0.000000 0.000000 0.000000 5.790210 -1.304957 -1.393980 0.591064 -2.391845 16.431318 -0.309466 2.729769 -0.437444 -40.561693 48.740233 56.110448 -175.713119 79.383348 174.443578 0.000000 0.000000 0.000000 
0.222235 108.502724 -6.147381 0.000000 0.000000 0.000000 -86.863395 -4.394997 1.047959 6.328019 16.760531 10.016784 -3.969259 6.793576 7.448396 31.620528 28.421590 -25.345099 -8.822480 -0.038752 2.943473 0.000000 0.000000 0.000000 -88.813947 -1.089380 3.230946 1.745174 -23.219365 -14.188229 -1.158157 -1.855224 -6.952138 36.939313 -28.833138 30.240823 -10.385251 1.903817 -4.014687 0.000000 0.000000 0.000000 -87.612667 -5.167306 -0.796454 4.563199 -1.449053 1.507818 4.599358 -0.928336 -1.377301 1.298287 0.336605 -0.161914 0.000000 0.000000 0.000000 5.308118 -1.188236 -1.461182 -6.356969 -0.656155 0.549398 -1.681242 -1.152629 4.927675 0.000000 0.000000 0.000000 6.786523 -1.531351 -1.139618 -0.119440 1.975539 -6.473676 -3.478746 0.631343 -2.417446 39.288389 -33.346332 -35.379700 -41.192663 -89.828681 -40.842257 0.000000 0.000000 0.000000 6.007554 -1.216650 -1.248501 0.688368 -2.626861 16.704945 -0.293224 2.806956 -0.473806 -32.407817 49.920674 49.753451 -177.179178 77.837491 176.208895 0.000000 0.000000 0.000000 
0.172968 108.410378 -5.848713 0.000000 0.000000 0.000000 -86.250201 -4.549202 0.691856 5.356757 16.205486 10.261484 -3.956825 6.613089 7.594143 31.801675 28.716168 -25.187214 -8.470584 -0.033577 2.709401 0.000000 0.000000 0.000000 -87.949846 -1.256836 2.764451 1.519304 -22.249191 -13.800362 -1.496057 -2.030385 -7.063491 37.528061 -29.255780 30.044462 -10.561845 1.767748 -3.673350 0.000000 0.000000 0.000000 -86.982589 -5.347137 -1.228078 4.533457 -1.240077 1.563414 4.703440 -0.960730 -1.198577 1.302723 0.305432 -0.125366 0.000000 0.000000 0.000000 5.140366 -1.122609 -1.317770 -4.319479 -0.713556 -0.112074 4.532462 -1.180634 3.976415 0.000000 0.000000 0.000000 6.923834 -1.559741 -0.994603 -0.095431 2.269056 -6.620132 -3.208258 0.631488 -2.113715 39.922910 -33.998657 -34.599570 -26.453509 -89.573874 -26.231161 0.000000 0.000000 0.000000 6.189750 -1.181930 -1.071181 0.801962 -3.208139 17.383854 -0.141467 2.967888 -0.545626 -22.141086 50.021314 42.333321 -178.800392 74.970178 178.170225 0.000000 0.000000 0.000000 
0.109604 108.300156 -5.589890 0.000000 0.000000 0.000000 -85.500554 -4.762643 0.302247 4.218652 15.743461 10.372149 -4.163570 6.375997 7.759590 31.934594 28.804393 -24.937366 -8.300013 -0.041350 2.442386 0.000000 0.000000 0.000000 -87.000149 -1.396651 2.327046 1.190945 -21.155001 -13.420342 -1.829114 -2.170031 -7.230572 38.117380 -29.731240 29.893754 -10.679615 1.634110 -3.256305 0.000000 0.000000 0.000000 -86.197254 -5.530888 -1.673009 4.576115 -1.097656 1.522198 4.775627 -1.055638 -0.988533 1.186577 0.372667 -0.177654 0.000000 0.000000 0.000000 4.927405 -1.108256 -1.128988 -2.006566 -0.840862 -0.661557 11.293984 -1.581400 2.900956 0.000000 0.000000 0.000000 6.989511 -1.631281 -0.787259 -0.084832 2.830155 -6.710017 -2.976516 0.645175 -2.076110 40.582361 -34.756490 -33.831283 -19.771082 -88.872386 -19.691159 0.000000 0.000000 0.000000 6.290957 -1.205808 -0.866854 0.934711 -4.111992 18.350133 0.083950 3.097171 -0.488354 -11.948363 48.505299 35.709663 -179.921021 71.250238 179.596874 0.000000 0.000000 0.000000 
